<?xml version="1.0" encoding="UTF-8"?>
<svg id="Layer_1" data-name="Layer 1" xmlns="http://www.w3.org/2000/svg" viewBox="0 0 149.32 209.62">
  <defs>
    <style>
      .cls-1 {
        stroke: #161616;
      }

      .cls-1, .cls-2 {
        fill: none;
        stroke-linecap: round;
        stroke-miterlimit: 10;
        stroke-width: 4.5px;
      }

      .cls-2 {
        stroke: #161616;
      }
    </style>
  </defs>
  <rect class="cls-1" x="9.74" y="10.64" width="129.45" height="189.82" rx="64.72" ry="64.72"/>
  <line class="cls-1" x1="73.94" y1="21.72" x2="73.94" y2="41.5"/>
  <line class="cls-1" x1="52.39" y1="25.55" x2="59.75" y2="43.91"/>
  <line class="cls-1" x1="34.22" y1="38.06" x2="48.21" y2="52.05"/>
  <line class="cls-1" x1="98.33" y1="27.15" x2="89.53" y2="44.87"/>
  <line class="cls-1" x1="115.84" y1="40.08" x2="101.37" y2="53.56"/>
  <line class="cls-1" x1="127.38" y1="57.72" x2="109.13" y2="65.35"/>
  <line class="cls-1" x1="22.23" y1="56.44" x2="40.13" y2="64.86"/>
  <line class="cls-1" x1="18.9" y1="78.47" x2="38.68" y2="78.47"/>
  <line class="cls-1" x1="18.64" y1="100.98" x2="41.21" y2="93.35"/>
  <line class="cls-1" x1="130.34" y1="100.7" x2="107.32" y2="93.68"/>
  <line class="cls-1" x1="110.99" y1="78.47" x2="130.77" y2="78.47"/>
  <path class="cls-1" d="M17.21,124.96s29-10.92,45.95,5.65"/>
  <path class="cls-1" d="M18.9,141.05s18.46-8.85,34.78,0"/>
  <path class="cls-1" d="M22.74,156.14s10.15-5.73,24.94-2.54"/>
  <path class="cls-1" d="M32.14,169.53s4.81-3.77,13.08-1.97"/>
  <path class="cls-2" d="M53.1,187.76s-1.52-78.57,77.29-69.91"/>
  <path class="cls-1" d="M69.19,191.01s-5.22-65.93,61.84-55.76"/>
  <path class="cls-1" d="M86.56,190.3s-5.79-51.22,42.67-40.59"/>
  <path class="cls-1" d="M101.68,184.58s-5.92-26.77,21.58-19.6"/>
  <g>
    <path class="cls-1" d="M72.99,80.31c-2.88-3.3-7.64-4.04-11.52-2.11-4.76,2.36-12.82,4.98-13.59-3.85-1.1-12.61,29.61-37.46,48.91-11.67,19.3,25.79-27.62,44.16-22.69,30.49,2.29-6.35,1.08-10.35-1.11-12.86Z"/>
    <path class="cls-1" d="M59.9,78.92s6.07-15.12-1.66-20.2"/>
    <path class="cls-1" d="M94.58,60s-18.47,7.92-19.5,21.5"/>
    <path class="cls-1" d="M101.15,78.16s-16.88-3.81-25.83,8.52"/>
    <path class="cls-1" d="M82.39,52.21s-12.57,5.88-12.06,24.52"/>
  </g>
</svg>